# xmcd
#
# Track frame offsets:
# 150
# 14949
# 30361
# 34261
# 38918
# 42709
# 47168
#
# Disc length: 682 seconds
#
#
# Revision: 0
# Processed by: cddbd v1.5.1PL0 Copyright (c) Steve Scherf et al.
# Submitted via: FreeRIP 2.70 
#
DISCID=5e02a807
DTITLE=Channel Red - Promo
DYEAR=1900
DGENRE=Rockabilly
TTITLE0=Lorraine
TTITLE1=Greenback Fly
TTITLE2=Get Ready
TTITLE3=You Can Do No Wrong
TTITLE4=Ice Rock
TTITLE5=Assembly Line
TTITLE6=When She's Good
EXTD=Michael Warlich\nVismarktstraat 11\n4811 WD Breda\n0648542840\nchannelred2000@yahoo.com
EXTT0=
EXTT1=
EXTT2=
EXTT3=
EXTT4=
EXTT5=
EXTT6=
PLAYORDER=
